<svg width="34" height="22" viewBox="0 0 34 22" xmlns="http://www.w3.org/2000/svg">
<path d="M16.6562 21.3709H18.5683C18.8895 21.3285 19.1922 21.1765 19.4372 20.9344C19.6119 20.6546 19.7035 20.3177 19.6986 19.9736C19.6986 19.9736 19.6603 17.0472 20.8479 16.6082C22.0356 16.1693 23.5185 19.4444 25.1098 20.6978C25.7115 21.2421 26.4709 21.5036 27.2343 21.4294L31.4834 21.3612C31.4834 21.3612 33.7099 21.2026 32.654 19.1932C31.8168 17.595 30.7468 16.1738 29.4905 14.9914C26.8221 12.1479 27.179 12.6088 30.3935 7.69007C32.3523 4.69541 33.1341 2.86642 32.8898 2.08117C32.6455 1.29593 31.2157 1.53248 31.2157 1.53248L26.4248 1.56662C26.2126 1.53728 25.9975 1.58056 25.8066 1.69099C25.6239 1.84447 25.4778 2.04825 25.3817 2.28358C24.8854 3.7611 24.2939 5.19419 23.612 6.57073C21.4768 10.7311 20.6249 10.9603 20.2743 10.6921C19.4649 10.0897 19.6667 8.27291 19.6667 6.98286C19.6667 2.95177 20.2 1.27154 18.6299 0.837463C17.8974 0.639627 17.1447 0.557551 16.3928 0.593597C15.0539 0.451088 13.7036 0.610134 12.4178 1.06182C11.8718 1.36665 11.4511 2.03728 11.7082 2.08849C12.2526 2.14435 12.7579 2.43653 13.121 2.90544C13.455 3.67819 13.6191 4.53301 13.599 5.3953C13.599 5.3953 13.8816 10.1385 12.9404 10.7286C12.3031 11.1334 11.4086 10.3067 9.50718 6.53415C8.86477 5.22178 8.29699 3.86307 7.80755 2.46648C7.71958 2.22894 7.58421 2.01846 7.41239 1.85194C7.18905 1.68261 6.93835 1.56654 6.67518 1.51053L2.10318 1.54467C2.10318 1.54467 1.41908 1.56662 1.16839 1.90803C0.945312 2.21286 1.15139 2.8396 1.15139 2.8396C3.07801 8.02455 5.63675 12.869 8.75085 17.2276C10.7741 19.8034 13.6354 21.3039 16.6562 21.3733V21.3709Z" fill="#F1F8ED"/>
<path d="M26.969 21.9976C26.0973 21.9659 25.2515 21.6504 24.53 21.088C23.779 20.4727 23.0956 19.7555 22.4947 18.9518C22.075 18.3579 21.5785 17.8413 21.0224 17.4203C20.8449 18.0505 20.7546 18.7088 20.7547 19.3712C20.7704 20.0261 20.5657 20.6628 20.1832 21.149C19.763 21.582 19.2327 21.8487 18.6705 21.9099H16.682C13.4231 21.8717 10.3084 20.3621 8.01174 17.7081C4.81604 13.5734 2.17783 8.91268 0.184953 3.8809C-0.119519 3.1663 -0.0437664 2.31521 0.38041 1.68612C0.844223 1.20098 1.4527 0.939052 2.08004 0.954522L6.65416 0.922819C7.13198 0.976089 7.59201 1.1583 7.99687 1.45445C8.33268 1.73443 8.59798 2.11136 8.76595 2.54696C9.24145 3.80668 9.78938 5.02867 10.4061 6.20494C10.9759 7.3902 11.6756 8.48675 12.4881 9.46785C12.5922 8.26522 12.6085 7.05466 12.537 5.84889C12.5592 5.2829 12.4721 4.71835 12.2821 4.19549C12.079 4.01099 11.8311 3.90361 11.5725 3.88822L10.7758 3.7736L10.5782 2.79814C10.4465 1.80317 11.3366 0.949644 11.9697 0.603356C13.4006 0.0883432 14.9055 -0.0997378 16.3994 0.049782C17.2254 0.0189178 18.0514 0.109072 18.8575 0.318034C20.9332 0.856976 20.8567 2.88837 20.7696 5.03926C20.7462 5.67331 20.7186 6.40491 20.7186 7.25356V7.90468C20.6992 8.35499 20.7048 8.80622 20.7356 9.25569C21.4926 8.33167 22.1561 7.31231 22.7135 6.21713C23.3588 4.99758 23.9207 3.72239 24.394 2.40308C24.585 1.92427 24.8946 1.52052 25.2842 1.24228C25.6758 1.00741 26.1205 0.915503 26.5589 0.978908L31.2095 0.937451C31.6344 0.883801 33.3893 0.769185 33.8801 2.23238C34.237 3.30538 33.9204 4.81247 31.2202 8.67529C30.8101 9.26544 30.4426 9.77268 30.1239 10.2141C29.6016 10.8532 29.1473 11.5614 28.7706 12.3235C29.1879 12.8312 29.6351 13.3055 30.109 13.7428C31.4349 14.9532 32.5925 16.3881 33.5423 17.9983C34.0343 18.7064 34.137 19.6722 33.8078 20.4954C33.3002 21.3637 32.454 21.8913 31.5431 21.9074L27.2388 21.9757C27.1501 21.9969 27.0593 22.0043 26.969 21.9976ZM21.067 14.9865C22.1739 14.9865 23.1236 16.1546 24.0414 17.2935C24.5265 17.9438 25.073 18.5302 25.6709 19.042C26.0704 19.3826 26.5563 19.5634 27.0539 19.5566L31.4581 19.4761C31.5687 19.4633 31.6778 19.4363 31.7832 19.3956L31.7492 19.3322C30.9203 17.9512 29.918 16.7185 28.7748 15.6742C25.8876 12.7966 26.0873 11.9845 28.471 8.67529C28.7833 8.23877 29.1424 7.74129 29.546 7.16333C30.4287 6.02029 31.1726 4.74556 31.7577 3.37366C31.6092 3.36139 31.46 3.36139 31.3115 3.37366L26.4123 3.41268C26.3167 3.41268 25.5413 5.60747 24.5003 7.52181C22.9408 10.3628 21.2773 12.8405 19.7201 11.7699C18.5069 10.9286 18.5516 9.14351 18.5856 7.83883V7.25844C18.5856 6.37077 18.6153 5.60259 18.6387 4.93928C18.7126 4.22064 18.694 3.49346 18.5834 2.78107C18.5158 2.74411 18.4445 2.71706 18.371 2.7006C17.7175 2.53119 17.0477 2.45986 16.3782 2.48843C15.5413 2.46351 14.7038 2.4879 13.8691 2.56159C13.8985 2.5981 13.9261 2.63635 13.9519 2.67621C14.4485 3.60701 14.6953 4.68497 14.6615 5.77574C14.874 9.15083 14.4491 11.2261 13.4166 11.8358C11.6872 12.8551 10.2 10.4579 8.59386 7.46816C7.91892 6.19267 7.31987 4.86627 6.80076 3.49804C6.70721 3.41085 6.59494 3.35446 6.4757 3.33465L2.33923 3.38098C4.1735 7.95368 6.58372 12.1919 9.49254 15.9595C11.3716 18.1489 13.9201 19.4112 16.597 19.4785H18.5601C18.5346 19.4785 18.6663 19.4297 18.7109 19.398C18.6217 18.8006 18.6748 15.7132 20.538 15.0792C20.7093 15.0181 20.8876 14.9869 21.067 14.9865Z"/>
</svg>
