<svg viewBox="0 0 15 25" xmlns="http://www.w3.org/2000/svg">
<path d="M12.5989 0C12.5989 0 10.9714 1.99559 9.21134 2.80015C-3.82263 8.75867 1.67435 20.3702 1.85368 20.4084C1.85368 20.4084 2.58456 18.7998 3.57187 17.8822C9.83693 12.0611 11.1103 5.36067 11.1103 5.36067C11.1103 5.36067 9.70441 13.4234 4.1307 18.4403C2.89968 19.5477 2.06612 22.2746 1.71327 25C1.71327 25 2.58589 24.5544 2.96113 24.4337C3.10745 23.2268 3.41338 22.0712 3.9306 21.0389C11.7205 22.2111 14.2719 14.2777 14.6052 11.5113C15.3918 4.97786 12.5989 0 12.5989 0Z" fill="white"/>
</svg>
