<svg width="19" height="30" viewBox="0 0 19 30" xmlns="http://www.w3.org/2000/svg">
<path d="M11.736 30H6.37522C5.4798 30 4.7514 29.3472 4.7514 28.5448V17.7086H1.62381C0.728392 17.7086 0 17.0556 0 16.2534V11.61C0 10.8076 0.728392 10.1548 1.62381 10.1548H4.7514V7.82959C4.7514 5.52406 5.55923 3.56255 7.08727 2.15744C8.6222 0.745926 10.7673 0 13.2906 0L17.379 0.0059509C18.2729 0.00732422 19 0.660095 19 1.46118V5.7724C19 6.57486 18.2719 7.22763 17.3767 7.22763L14.624 7.22855C13.7845 7.22855 13.5708 7.37938 13.5251 7.42561C13.4497 7.50229 13.3601 7.71904 13.3601 8.31757V10.1546H17.1698C17.4566 10.1546 17.7345 10.218 17.9733 10.3374C18.4884 10.5954 18.8087 11.0831 18.8087 11.6103L18.8067 16.2536C18.8067 17.0556 18.0783 17.7084 17.1828 17.7084H13.3601V28.5448C13.3601 29.3472 12.6314 30 11.736 30ZM6.71387 28.2413H11.3973V16.9212C11.3973 16.3854 11.8839 15.9496 12.4815 15.9496H16.8442L16.846 11.9135H12.4812C11.8836 11.9135 11.3973 11.4777 11.3973 10.9419V8.31757C11.3973 7.63046 11.4752 6.84906 12.054 6.26175C12.7532 5.55176 13.8553 5.46982 14.6235 5.46982L17.0375 5.4689V1.76422L13.2891 1.75873C9.23388 1.75873 6.71387 4.08508 6.71387 7.82959V10.9419C6.71387 11.4775 6.2276 11.9135 5.62997 11.9135H1.96247V15.9496H5.62997C6.2276 15.9496 6.71387 16.3854 6.71387 16.9212V28.2413ZM17.3752 1.76468H17.3754H17.3752Z"/>
</svg>
